<svg width="105" height="79" viewBox="0 0 105 79" fill="none" xmlns="http://www.w3.org/2000/svg">
<path d="M28.7356 63.5601L21.9196 63.6561L41.0236 42.7281C46.5916 36.5841 49.3756 32.1681 49.3756 23.3361V21.6081C49.3756 11.8161 43.0396 0.87207 24.7996 0.87207C8.09563 0.87207 0.223633 9.03207 0.223633 25.1601V27.0801H15.5836C15.5836 17.5761 19.0396 14.3121 24.3196 14.3121H25.2796C30.3676 14.3121 34.0156 17.6721 34.0156 24.4881V25.4481C34.0156 29.5761 32.3836 31.9761 29.0236 35.5281L0.223633 67.3041V77.0001H49.3756V63.5601H28.7356Z" fill="white" fill-opacity="0.1"/>
<path d="M79.4821 78.2481C97.4341 78.2481 104.538 66.5361 104.538 57.0321V55.2081C104.538 46.9521 100.41 41.6721 95.3221 38.6961C100.218 35.8161 104.058 30.6321 104.058 22.5681V20.7441C104.058 11.8161 97.7221 0.87207 79.4821 0.87207C61.2421 0.87207 54.9061 11.8161 54.9061 20.7441V22.5681C54.9061 30.6321 58.7461 35.8161 63.6421 38.6961C58.4581 41.6721 54.4261 46.9521 54.4261 55.2081V57.0321C54.4261 66.5361 61.5301 78.2481 79.4821 78.2481ZM78.8101 45.5121H80.1541C85.7221 45.5121 89.1781 48.4881 89.1781 54.2481V55.3041C89.1781 62.0241 84.7621 64.8081 79.9621 64.8081H79.0021C74.2021 64.8081 69.7861 62.0241 69.7861 55.3041V54.2481C69.7861 48.4881 73.2421 45.5121 78.8101 45.5121ZM79.9621 14.3121C85.0501 14.3121 88.6981 17.5761 88.6981 22.5681V23.5281C88.6981 29.2881 85.4341 32.0721 79.8661 32.0721H79.0981C73.5301 32.0721 70.2661 29.2881 70.2661 23.5281V22.5681C70.2661 17.5761 73.9141 14.3121 79.0021 14.3121H79.9621Z" fill="white" fill-opacity="0.1"/>
</svg>
