<svg width="500" height="154" viewBox="0 0 500 154" fill="none" xmlns="http://www.w3.org/2000/svg">
<g clip-path="url(#clip0)">
<path d="M3.82642 88.6561C3.82642 60.9247 22.7785 52.1159 42.7108 52.1159H105.776L95.9727 100.075L71.4657 63.2084C70.8122 62.2297 69.1784 61.2509 67.8714 61.2509H47.939C46.632 61.2509 45.3249 62.2297 45.3249 63.5347L35.1954 115.735C34.8686 117.04 35.5221 118.019 36.8292 118.019H51.5334C52.8404 118.019 54.1474 117.04 54.1474 115.735L61.6629 79.1948L86.1699 115.735C86.8234 116.714 88.4572 117.692 89.7643 117.692H109.697C111.004 117.692 112.311 116.714 112.311 115.409L123.747 59.6197C124.074 58.3147 123.747 56.3572 123.094 55.3784L111.004 36.4558C110.35 35.477 108.716 34.4983 107.409 34.4983H18.5306C15.263 34.4983 15.5898 33.1933 18.2039 29.9308C31.9278 14.2707 52.1869 3.83063 75.0601 3.83063C115.905 3.83063 149.235 37.1083 149.235 77.8898C149.235 118.671 115.905 151.949 75.0601 151.949C32.5813 151.949 3.82642 116.714 3.82642 88.6561Z" fill="white"/>
<g clip-path="url(#clip1)">
<path d="M273.469 50.3091C273.469 41.8817 278.572 35.2419 287.245 35.2419C295.918 35.2419 301.021 41.8817 301.021 50.3091C301.021 59.2473 295.408 65.3764 287.245 65.3764C278.827 65.3764 273.469 58.9919 273.469 50.3091ZM294.133 50.3091C294.133 44.6909 291.327 40.8602 286.99 40.8602C282.653 40.8602 280.102 44.9462 280.102 50.3091C280.102 55.4167 282.398 60.0134 287.245 60.0134C291.327 59.7581 294.133 55.9274 294.133 50.3091Z" fill="white"/>
<path d="M179.337 64.6102C178.827 64.6102 178.572 64.3548 178.572 63.8441V36.7742C178.572 36.2634 178.827 36.0081 179.337 36.0081H183.418C183.929 36.0081 184.184 36.5188 184.184 36.7742L184.694 39.5833C186.48 37.285 189.796 35.2419 193.367 35.2419C198.725 35.2419 203.061 38.5618 203.061 46.4785V64.0995C203.061 64.6102 202.806 64.8656 202.296 64.8656H197.449C196.939 64.8656 196.684 64.6102 196.684 64.0995V47.2446C196.684 42.6479 194.133 41.1156 191.582 41.1156C188.265 41.1156 185.204 43.9247 185.204 49.543V63.8441C185.204 64.3548 184.949 64.6102 184.439 64.6102H179.337Z" fill="white"/>
<path d="M179.337 117.473C178.827 117.473 178.572 117.218 178.572 116.707V89.3817C178.572 88.871 178.827 88.6156 179.337 88.6156H183.418C183.929 88.6156 184.184 89.1264 184.184 89.3817L184.439 92.1909C186.225 89.8925 189.541 87.8495 193.112 87.8495C198.469 87.8495 202.806 91.1694 202.806 99.086V116.707C202.806 117.218 202.551 117.473 202.041 117.473H197.194C196.684 117.473 196.429 117.218 196.429 116.707V100.108C196.429 95.2554 193.878 93.9785 191.327 93.9785C188.01 93.9785 184.949 96.7877 184.949 102.406V116.707C184.949 117.218 184.694 117.473 184.184 117.473H179.337Z" fill="white"/>
<path d="M307.143 64.6102C306.633 64.6102 306.378 64.3548 306.378 63.8441V36.7742C306.378 36.2634 306.633 36.0081 307.143 36.0081H311.225C311.735 36.0081 311.99 36.5188 311.99 36.7742L312.245 39.5833C314.031 37.285 317.347 35.2419 320.919 35.2419C326.276 35.2419 330.612 38.5618 330.612 46.4785V64.0995C330.612 64.6102 330.357 64.8656 329.847 64.8656H325C324.49 64.8656 324.235 64.6102 324.235 64.0995V47.2446C324.235 42.6479 321.684 41.1156 319.133 41.1156C315.816 41.1156 312.755 43.9247 312.755 49.543V63.8441C312.755 64.3548 312.5 64.6102 311.99 64.6102H307.143Z" fill="white"/>
<path d="M221.684 40.6048C224.745 40.6048 227.806 42.9032 227.806 49.2876V50.5645C227.806 57.9704 224.235 59.7581 221.939 59.7581C217.602 59.7581 215.306 55.1613 215.306 50.0538C215.051 44.4355 217.857 40.6048 221.684 40.6048ZM220.408 35.2419C214.286 35.2419 208.418 40.3495 208.418 50.3091C208.418 58.4812 212.755 65.3764 220.408 65.3764C223.725 65.3764 226.786 63.3333 228.061 61.035L228.572 63.8441C228.572 64.3548 229.082 64.6102 229.337 64.6102H233.418C233.929 64.6102 234.184 64.3548 234.184 63.8441V36.7742C234.184 36.2634 233.929 36.0081 233.418 36.0081H229.592C229.082 36.0081 228.827 36.5188 228.827 36.7742L228.572 39.328C226.531 37.0296 223.98 35.2419 220.408 35.2419Z" fill="white"/>
<path d="M349.49 93.4678C352.551 93.4678 355.612 95.7662 355.612 101.895V103.427C355.612 110.833 352.041 112.621 349.745 112.621C345.408 112.621 343.112 108.024 343.112 102.917C342.857 97.2984 345.663 93.4678 349.49 93.4678ZM348.214 87.8495C342.092 87.8495 336.225 92.957 336.225 102.917C336.225 111.344 340.561 117.984 348.214 117.984C351.531 117.984 354.592 115.941 355.867 113.642L356.378 116.452C356.378 116.962 356.888 117.218 357.143 117.218H361.225C361.735 117.218 361.99 116.962 361.99 116.452V89.3817C361.99 88.871 361.735 88.6156 361.225 88.6156H357.653C357.143 88.6156 356.888 89.1264 356.888 89.3817L356.633 91.9355C354.337 89.6371 351.786 87.8495 348.214 87.8495Z" fill="white"/>
<path d="M349.235 40.6048C352.041 40.6048 355.357 42.9032 355.357 49.2876V50.5645C355.357 57.9704 351.786 59.7581 349.49 59.7581C345.153 59.7581 342.857 55.1613 342.857 50.0538C342.602 44.4355 345.408 40.6048 349.235 40.6048ZM348.214 35.2419C342.092 35.2419 336.225 40.3495 336.225 50.3091C336.225 58.4812 340.561 65.3764 348.214 65.3764C351.531 65.3764 354.592 63.3333 355.867 61.035L356.378 63.8441C356.378 64.3548 356.888 64.6102 357.143 64.6102H361.225C361.735 64.6102 361.99 64.3548 361.99 63.8441V36.7742C361.99 36.2634 361.735 36.0081 361.225 36.0081H357.398C356.888 36.0081 356.633 36.5188 356.633 36.7742L356.378 39.328C354.337 37.0296 351.786 35.2419 348.214 35.2419Z" fill="white"/>
<path d="M266.837 36.0081C267.347 36.0081 267.602 36.2634 267.602 36.7742V63.8441C267.602 64.3548 267.347 64.6102 266.837 64.6102H261.99C261.48 64.6102 261.225 64.3548 261.225 63.8441V37.2849C261.225 36.7742 261.48 36.5188 261.99 36.5188L266.837 36.0081Z" fill="white"/>
<path d="M374.49 24.0054C375 24.0054 375.255 24.2607 375.255 24.7715V63.8441C375.255 64.3548 375 64.6102 374.49 64.6102H369.643C369.133 64.6102 368.878 64.3548 368.878 63.8441V25.2823C368.878 24.7715 369.133 24.5161 369.643 24.5161L374.49 24.0054Z" fill="white"/>
<path d="M264.541 32.1774C266.654 32.1774 268.367 30.4624 268.367 28.3468C268.367 26.2312 266.654 24.5161 264.541 24.5161C262.428 24.5161 260.714 26.2312 260.714 28.3468C260.714 30.4624 262.428 32.1774 264.541 32.1774Z" fill="white"/>
<path d="M254.847 60.0134C254.847 59.5027 254.337 59.2473 253.572 59.5027C253.061 59.758 251.786 60.0134 250.765 60.0134C248.98 60.0134 247.959 59.2473 247.959 56.6935V41.1156H254.082C254.592 41.1156 254.847 40.8602 254.847 40.3494V36.7742C254.847 36.2634 254.592 36.008 254.082 36.008H247.959V28.3468C247.959 27.836 247.704 27.3252 247.194 27.5806L242.347 27.836C241.837 27.836 241.582 28.3468 241.582 28.6021V57.2043C241.582 61.8011 243.623 65.3763 249.49 65.3763C251.276 65.3763 253.316 65.1209 254.847 64.3548C255.102 64.0994 255.357 64.0994 255.357 63.5887L254.847 60.0134Z" fill="white"/>
<path d="M387.755 47.7554C388.265 44.4355 389.796 40.3495 394.133 40.3495C398.725 40.3495 400.255 43.9247 400.51 47.7554H387.755ZM394.643 65.3764C398.725 65.3764 402.041 64.3549 404.592 62.8226C405.102 62.5672 405.102 62.0565 405.102 61.8011L403.827 58.4812C403.571 57.9704 403.061 57.9704 402.806 57.9704C400.51 58.992 397.959 59.7581 395.153 59.7581C390.306 59.7581 388.265 56.4382 387.755 52.3522H406.378C406.888 52.3522 407.143 52.0968 407.143 51.586C407.143 50.8199 407.143 50.5645 407.143 49.7984C407.143 42.6479 403.572 34.9866 394.388 34.9866C385.969 34.9866 381.122 41.371 381.122 50.3092C380.867 59.5027 386.225 65.3764 394.643 65.3764Z" fill="white"/>
<path d="M463.776 117.473C463.265 117.473 463.01 117.218 463.01 116.707V89.3817C463.01 88.871 463.265 88.6156 463.776 88.6156H467.857C468.367 88.6156 468.622 89.1264 468.622 89.3817L468.878 92.1909C470.663 89.8925 473.98 87.8495 477.551 87.8495C482.908 87.8495 487.245 91.1694 487.245 99.086V116.707C487.245 117.218 486.99 117.473 486.48 117.473H481.633C481.122 117.473 480.867 117.218 480.867 116.707V100.108C480.867 95.2554 478.316 93.9785 475.765 93.9785C472.449 93.9785 469.388 96.7877 469.388 102.406V116.707C469.388 117.218 469.133 117.473 468.622 117.473H463.776Z" fill="white"/>
<path d="M370.153 117.473C369.643 117.473 369.388 117.218 369.388 116.707V89.3817C369.388 88.871 369.643 88.6156 370.153 88.6156H374.235C374.745 88.6156 375 89.1264 375 89.3817L375.255 92.1909C377.041 89.8925 380.357 87.8495 383.929 87.8495C389.286 87.8495 393.623 91.1694 393.623 99.086V116.707C393.623 117.218 393.368 117.473 392.857 117.473H388.01C387.5 117.473 387.245 117.218 387.245 116.707V100.108C387.245 95.2554 384.694 93.9785 382.143 93.9785C378.827 93.9785 375.765 96.7877 375.765 102.406V116.707C375.765 117.218 375.51 117.473 375 117.473H370.153Z" fill="white"/>
<path d="M329.847 76.6129C330.357 76.6129 330.612 76.8683 330.612 77.379V116.452C330.612 116.962 330.357 117.218 329.847 117.218H325C324.49 117.218 324.235 116.962 324.235 116.452V77.8898C324.235 77.379 324.49 77.1237 325 77.1237L329.847 76.6129Z" fill="white"/>
<path d="M215.306 100.618C215.816 97.2984 217.347 93.2124 221.684 93.2124C226.276 93.2124 227.806 96.7877 228.061 100.618H215.306ZM222.194 117.984C226.276 117.984 229.592 116.962 232.143 115.43C232.653 115.175 232.653 114.664 232.653 114.409L231.378 111.089C231.122 110.578 230.612 110.578 230.357 110.578C228.061 111.599 225.51 112.366 222.704 112.366C217.857 112.366 215.816 109.046 215.306 104.96H233.929C234.439 104.96 234.694 104.704 234.694 104.194C234.694 103.427 234.694 103.172 234.694 102.406C234.694 95.2554 231.122 87.5941 221.939 87.5941C213.52 87.5941 208.674 93.9785 208.674 102.917C208.418 112.11 213.776 117.984 222.194 117.984Z" fill="white"/>
<path d="M278.316 100.618C278.827 97.2984 280.357 93.2124 284.694 93.2124C289.286 93.2124 290.816 96.7877 291.072 100.618H278.316ZM285.459 117.984C289.541 117.984 292.857 116.962 295.408 115.43C295.919 115.175 295.918 114.664 295.918 114.409L294.643 111.089C294.388 110.578 293.878 110.578 293.623 110.578C291.327 111.599 288.776 112.366 285.97 112.366C281.123 112.366 279.082 109.046 278.572 104.96H297.194C297.704 104.96 297.959 104.704 297.959 104.194C297.959 103.427 297.959 103.172 297.959 102.406C297.959 95.2554 294.388 87.5941 285.204 87.5941C276.786 87.5941 271.939 93.9785 271.939 102.917C271.684 112.11 277.041 117.984 285.459 117.984Z" fill="white"/>
<path d="M264.796 76.6129L259.949 77.1237C259.439 77.1237 259.184 77.6344 259.184 77.8898V91.1694C257.398 89.3817 254.592 87.8495 251.276 87.8495C245.153 87.8495 239.286 92.957 239.286 102.917C239.286 111.344 243.623 117.984 251.276 117.984C254.592 117.984 258.163 115.941 259.694 113.642L260.204 116.452C260.204 116.962 260.714 117.218 260.97 117.218H264.796C265.306 117.218 265.561 116.962 265.561 116.452V77.379C265.561 77.1237 265.306 76.6129 264.796 76.6129ZM259.184 103.427C259.184 110.833 255.102 112.621 252.551 112.621C248.214 112.621 245.919 108.024 245.919 102.917C245.919 97.2984 248.725 93.4678 252.551 93.4678C255.357 93.4678 259.184 95.7661 259.184 101.895V103.427Z" fill="white"/>
<path d="M438.01 100.618C438.521 97.2984 440.051 93.2124 444.388 93.2124C448.98 93.2124 450.51 96.7877 450.765 100.618H438.01ZM445.153 117.984C449.235 117.984 452.551 116.962 455.102 115.43C455.612 115.175 455.612 114.664 455.612 114.409L454.337 111.089C454.082 110.578 453.572 110.578 453.316 110.578C451.02 111.599 448.469 112.366 445.663 112.366C440.816 112.366 438.776 109.046 438.265 104.96H456.888C457.398 104.96 457.653 104.704 457.653 104.194C457.653 103.427 457.653 103.172 457.653 102.406C457.653 95.2554 454.082 87.5941 444.898 87.5941C436.48 87.5941 431.633 93.9785 431.633 102.917C431.378 112.11 436.735 117.984 445.153 117.984Z" fill="white"/>
<path d="M425 76.6129L420.153 77.1237C419.643 77.1237 419.388 77.6344 419.388 77.8898V91.1694C417.602 89.3817 414.796 87.8495 411.48 87.8495C405.357 87.8495 399.49 92.957 399.49 102.917C399.49 111.344 403.827 117.984 411.48 117.984C414.796 117.984 418.368 115.941 419.643 113.642L420.153 116.452C420.153 116.962 420.663 117.218 420.919 117.218H424.745C425.255 117.218 425.51 116.962 425.51 116.452V77.379C425.765 77.1237 425.255 76.6129 425 76.6129ZM419.388 103.427C419.388 110.833 415.306 112.621 412.755 112.621C408.419 112.621 406.123 108.024 406.123 102.917C406.123 97.2984 408.929 93.4678 412.755 93.4678C415.561 93.4678 419.388 95.7661 419.388 101.895V103.427Z" fill="white"/>
<path d="M319.133 88.871C319.133 88.3602 318.878 88.1049 318.367 88.1049C314.796 88.1049 311.48 90.1479 309.439 92.4463L309.184 89.6371C309.184 89.1264 308.674 88.871 308.418 88.871H304.337C303.827 88.871 303.572 89.1264 303.572 89.6371V116.707C303.572 117.218 303.827 117.473 304.337 117.473H309.184C309.694 117.473 309.949 117.218 309.949 116.707V102.661C309.949 96.7877 313.521 94.4893 316.837 94.4893C317.347 94.4893 317.857 94.4893 318.112 94.7446C318.878 94.7446 319.133 94.4893 319.133 93.9785V88.871V88.871Z" fill="white"/>
</g>
</g>
<defs>
<clipPath id="clip0">
<path d="M0 0H500V153.226H0V0Z" fill="white"/>
</clipPath>
<clipPath id="clip1">
<path d="M178.572 24.0054H487.245V117.984H178.572V24.0054Z" fill="white"/>
</clipPath>
</defs>
</svg>
