<svg width="117" height="22" viewBox="0 0 117 22" fill="none" xmlns="http://www.w3.org/2000/svg">
  <path fill-rule="evenodd" clip-rule="evenodd" d="M20.893 14.83c0 3.953-1.856 6.547-9.164 6.547h-.696C4.537 21.377.825 18.166.825 14.83H7.09c.58 1.359 1.74 2.224 4.06 2.224h.58c2.204 0 3.364-.741 3.364-1.853 0-.865-.232-1.73-4.06-2.1-.116 0-.58-.124-.58-.124-5.568-.494-8.816-3.088-8.932-5.93C1.405 3.96 4.885.996 10.685.996h.58c5.916.123 8.932 3.212 9.396 6.67H14.63c-.232-1.852-1.392-2.223-3.364-2.223h-.58c-1.856 0-3.248.618-3.364 1.606 0 1.359 1.16 1.606 3.712 1.853.058 0 .203.03.348.062.145.03.29.061.348.061 6.96.865 8.816 3.089 9.164 5.806zm16.704-1.482h-8.004v3.582h9.396v3.953H23.213V1.613H38.99v3.952h-9.396v3.83h8.004v3.953zM83.07 7.17c0 1.236-.116 2.224-.812 3.088a7.076 7.076 0 01-3.132 2.224l4.524 8.524h-7.308l-3.48-7.66H69.73v7.66h-6.264V1.612h11.832c2.552 0 4.524.495 5.916 1.606 1.392.989 1.856 2.224 1.856 3.953zm-9.176 2.105c.94.015 1.966.032 2.564-.499.348-.37.464-.865.464-1.606 0-.494-.232-.988-.812-1.359-.464-.247-1.16-.37-3.364-.37h-2.9v3.83h3.596c.147 0 .298.002.452.004zm12.424-7.664h6.612v19.395h-6.612V1.612zm18.908 0c3.712 0 6.612.989 8.7 2.842 1.972 1.729 2.9 4.076 2.9 7.164 0 2.718-1.044 4.941-3.132 6.795-2.088 1.729-4.756 2.594-7.656 2.594h-9.28V1.612h8.468zm3.944 13.836c-1.044 1.235-2.552 1.482-4.292 1.482h-1.856V5.566h1.74c1.74 0 3.248.37 4.292 1.605.928 1.112 1.508 2.595 1.508 4.077.116 1.606-.348 3.088-1.392 4.2zm-62.408-4.57c0 4.323 1.276 5.929 4.408 5.929 2.204 0 3.248-1.112 3.712-2.471h6.148c-.928 4.694-4.06 6.918-8.932 7.041h-1.276c-6.96 0-10.208-4.076-10.208-10.5-.116-6.67 3.712-9.882 10.208-9.882h.928c4.524.123 8.12 2.347 9.164 7.041h-6.148c-.464-1.235-1.624-2.347-3.596-2.47h-.116c-2.668 0-4.292 1.358-4.292 5.311z" fill="#fff"/>
  <mask id="a" maskUnits="userSpaceOnUse" x="0" y="0" width="117" height="22">
    <path fill-rule="evenodd" clip-rule="evenodd" d="M20.893 14.83c0 3.953-1.856 6.547-9.164 6.547h-.696C4.537 21.377.825 18.166.825 14.83H7.09c.58 1.359 1.74 2.224 4.06 2.224h.58c2.204 0 3.364-.741 3.364-1.853 0-.865-.232-1.73-4.06-2.1-.116 0-.58-.124-.58-.124-5.568-.494-8.816-3.088-8.932-5.93C1.405 3.96 4.885.996 10.685.996h.58c5.916.123 8.932 3.212 9.396 6.67H14.63c-.232-1.852-1.392-2.223-3.364-2.223h-.58c-1.856 0-3.248.618-3.364 1.606 0 1.359 1.16 1.606 3.712 1.853.058 0 .203.03.348.062.145.03.29.061.348.061 6.96.865 8.816 3.089 9.164 5.806zm16.704-1.482h-8.004v3.582h9.396v3.953H23.213V1.613H38.99v3.952h-9.396v3.83h8.004v3.953zM83.07 7.17c0 1.236-.116 2.224-.812 3.088a7.076 7.076 0 01-3.132 2.224l4.524 8.524h-7.308l-3.48-7.66H69.73v7.66h-6.264V1.612h11.832c2.552 0 4.524.495 5.916 1.606 1.392.989 1.856 2.224 1.856 3.953zm-9.176 2.105c.94.015 1.966.032 2.564-.499.348-.37.464-.865.464-1.606 0-.494-.232-.988-.812-1.359-.464-.247-1.16-.37-3.364-.37h-2.9v3.83h3.596c.147 0 .298.002.452.004zm12.424-7.664h6.612v19.395h-6.612V1.612zm18.908 0c3.712 0 6.612.989 8.7 2.842 1.972 1.729 2.9 4.076 2.9 7.164 0 2.718-1.044 4.941-3.132 6.795-2.088 1.729-4.756 2.594-7.656 2.594h-9.28V1.612h8.468zm3.944 13.836c-1.044 1.235-2.552 1.482-4.292 1.482h-1.856V5.566h1.74c1.74 0 3.248.37 4.292 1.605.928 1.112 1.508 2.595 1.508 4.077.116 1.606-.348 3.088-1.392 4.2zm-62.408-4.57c0 4.323 1.276 5.929 4.408 5.929 2.204 0 3.248-1.112 3.712-2.471h6.148c-.928 4.694-4.06 6.918-8.932 7.041h-1.276c-6.96 0-10.208-4.076-10.208-10.5-.116-6.67 3.712-9.882 10.208-9.882h.928c4.524.123 8.12 2.347 9.164 7.041h-6.148c-.464-1.235-1.624-2.347-3.596-2.47h-.116c-2.668 0-4.292 1.358-4.292 5.311z" fill="#fff"/>
  </mask>
  <g mask="url(#a)">
    <path fill="#fff" d="M.825.995h116v21h-116z"/>
  </g>
</svg>
