<?xml version="1.0" encoding="UTF-8" standalone="no"?>
<!-- Created with Inkscape (http://www.inkscape.org/) -->
<svg
   xmlns:svg="http://www.w3.org/2000/svg"
   xmlns="http://www.w3.org/2000/svg"
   version="1.0"
   width="783.42517"
   height="218.62204"
   id="svg1957">
  <defs
     id="defs1959" />
  <g
     transform="translate(4.7715608,-872.37243)"
     id="layer1">
    <g
       transform="translate(17.68226,17.753685)"
       id="g2188">
      <path
         d="M 133.59092,986.92203 L 64.614963,1055.4871 L 63.793821,1054.6664 L 63.793821,917.12454 L 133.59092,986.10078 L 133.59092,986.92203"
         style="fill:none;fill-opacity:1;fill-rule:evenodd;stroke:none"
         id="path8" />
      <path
         d="M 198.46116,963.92977 L 202.56687,946.27508 L 225.96943,946.27508 L 230.07514,963.92977 L 247.72969,963.92977 L 225.96943,884.68954 L 203.79859,884.68954 L 181.62774,963.92977 L 198.46116,963.92977 z M 222.27428,933.95797 L 206.26201,933.95797 L 213.65229,899.4704 L 214.06287,899.4704 L 222.27428,933.95797"
         style="fill:#fff;fill-opacity:1;fill-rule:evenodd;stroke:none"
         id="path10" />
      <path
         d="M 278.9331,929.44219 L 288.7868,929.44219 L 293.71366,929.85227 L 297.4088,932.31602 L 299.05109,936.0111 L 299.87222,940.1168 L 299.05109,945.45438 L 296.58766,949.14946 L 293.71366,950.79141 L 290.42909,951.61266 L 278.9331,951.61266 L 278.9331,929.44219 z M 278.9331,896.59602 L 289.19737,896.59602 L 294.12424,897.8279 L 297.4088,901.52298 L 298.64051,906.86055 L 297.81937,911.78751 L 296.17709,914.66133 L 292.89252,916.71446 L 278.9331,916.71446 L 278.9331,896.59602 z M 291.6608,963.92977 L 295.35594,963.92977 L 299.87222,963.10852 L 304.79908,961.87719 L 308.90479,959.41344 L 312.59993,955.71836 L 315.8845,950.38133 L 316.29508,942.58 L 316.29508,936.42172 L 314.65279,931.49477 L 312.18936,927.38907 L 307.67307,924.51524 L 301.51451,922.46211 L 307.67307,920.40954 L 312.18936,916.71446 L 314.65279,911.37688 L 315.06336,905.21805 L 314.65279,897.8279 L 312.18936,892.49032 L 308.49422,887.97399 L 303.56737,885.92142 L 297.81937,884.68954 L 261.68911,884.68954 L 261.68911,963.92977 L 291.6608,963.92977"
         style="fill:#fff;fill-opacity:1;fill-rule:evenodd;stroke:none"
         id="path12" />
      <path
         d="M 352.01476,963.92977 L 352.01476,905.62868 L 374.1856,963.92977 L 396.35644,963.92977 L 396.35644,884.68954 L 380.75474,884.68954 L 380.75474,939.70618 L 380.34417,939.70618 L 359.40504,884.68954 L 336.00248,884.68954 L 336.00248,963.92977 L 352.01476,963.92977"
         style="fill:#fff;fill-opacity:1;fill-rule:evenodd;stroke:none"
         id="path14" />
      <path
         d="M 423.04357,928.62094 L 433.30784,918.35641 L 423.04357,907.6818 L 411.95815,918.35641 L 423.04357,928.62094"
         style="fill:#fff;fill-opacity:1;fill-rule:evenodd;stroke:none"
         id="path16" />
      <path
         d="M 455.47869,963.92977 L 460.40554,946.27508 L 482.98695,946.27508 L 487.09266,963.92977 L 504.74722,963.92977 L 483.39752,884.68954 L 460.81611,884.68954 L 438.64527,963.92977 L 455.47869,963.92977 z M 479.29181,933.95797 L 463.27954,933.95797 L 471.08039,899.4704 L 479.29181,933.95797"
         style="fill:#fff;fill-opacity:1;fill-rule:evenodd;stroke:none"
         id="path18" />
      <path
         d="M 535.1295,963.92977 L 535.1295,902.75485 L 535.54007,902.75485 L 550.32063,963.92977 L 566.3329,963.92977 L 581.52404,902.75485 L 581.93461,902.75485 L 581.93461,963.92977 L 597.94689,963.92977 L 597.94689,884.68954 L 572.49147,884.68954 L 558.94263,938.4743 L 558.12148,938.4743 L 545.80435,884.68954 L 519.11721,884.68954 L 519.11721,963.92977 L 535.1295,963.92977"
         style="fill:#fff;fill-opacity:1;fill-rule:evenodd;stroke:none"
         id="path20" />
      <path
         d="M 637.36169,896.59602 L 644.75201,896.59602 L 648.44714,897.41727 L 650.91056,899.05977 L 652.55284,901.9336 L 653.37398,906.86055 L 652.55284,911.37688 L 651.32113,914.66133 L 648.85771,917.94579 L 644.75201,919.17766 L 637.36169,919.17766 L 637.36169,896.59602 z M 637.36169,931.08414 L 641.46745,931.08414 L 647.21542,931.49477 L 650.08942,933.54789 L 652.55284,936.0111 L 653.37398,939.70618 L 653.78454,943.81188 L 653.78454,956.53961 L 655.8374,963.92977 L 671.43912,963.92977 L 671.02855,959.41344 L 670.20742,952.84453 L 669.79685,945.45438 L 669.79685,940.52743 L 668.97571,934.77922 L 666.51229,930.67352 L 664.04881,927.38907 L 660.76425,926.15719 L 657.47969,924.92586 L 655.8374,924.92586 L 655.8374,924.51524 L 662.40652,922.05149 L 666.51229,917.94579 L 669.79685,912.19813 L 670.20742,905.21805 L 668.97571,897.8279 L 666.51229,891.66962 L 662.81709,887.56392 L 658.30083,885.10017 L 651.32113,884.68954 L 620.11774,884.68954 L 620.11774,963.92977 L 637.36169,963.92977 L 637.36169,931.08414"
         style="fill:#fff;fill-opacity:1;fill-rule:evenodd;stroke:none"
         id="path22" />
      <path
         d="M 715.78083,953.25516 L 710.85393,952.02328 L 707.97994,948.73883 L 705.92709,942.99063 L 705.51652,934.77922 L 705.51652,913.42946 L 705.92709,905.21805 L 707.97994,899.4704 L 710.85393,896.1854 L 715.78083,894.95407 L 720.70767,896.1854 L 723.99223,899.4704 L 725.63452,905.21805 L 726.45565,913.42946 L 726.86622,923.69399 L 726.45565,934.77922 L 725.63452,942.99063 L 723.99223,948.73883 L 720.70767,952.02328 L 715.78083,953.25516 z M 715.78083,965.16164 L 725.22393,964.34039 L 731.79307,961.87719 L 736.71991,957.77149 L 740.41503,952.02328 L 742.05737,946.27508 L 743.28909,939.70618 L 743.28909,908.91313 L 742.05737,901.9336 L 740.41503,896.1854 L 736.71991,890.43774 L 731.79307,886.33204 L 725.22393,883.86829 L 715.78083,883.45821 L 706.74823,883.86829 L 699.76853,886.33204 L 694.84168,890.43774 L 691.9677,896.1854 L 689.50422,901.9336 L 689.09365,908.91313 L 688.27251,916.71446 L 688.27251,931.49477 L 689.09365,939.70618 L 689.50422,946.27508 L 691.9677,952.02328 L 694.84168,957.77149 L 699.76853,961.87719 L 706.74823,964.34039 L 715.78083,965.16164"
         style="fill:#fff;fill-opacity:1;fill-rule:evenodd;stroke:none"
         id="path24" />
      <path
         d="M -4.7715608,872.37243 L 133.59092,872.37243 L 133.59092,986.92203 L 64.614963,918.35641 L 64.614963,1055.4871 L -4.7715608,986.92203 L -4.7715608,872.37243"
         style="fill:#fff;fill-opacity:1;fill-rule:evenodd;stroke:none"
         id="path32" />
    </g>
  </g>
</svg>
