<svg width="582" height="169" viewBox="0 0 582 169" fill="none" xmlns="http://www.w3.org/2000/svg">
  <path fill-rule="evenodd" clip-rule="evenodd" d="M158.737 151.268c-2.226.304-5.692-1.196-7.785-1.646-1.232-.254-2.686.137-3.288-.704-.12-.659-.245-1.324-.361-1.989-.705-.555-1.4-1.116-2.099-1.674-.844-1.321-.436-2.752-1.243-4.184-1.628-2.884-4.016-5.864-5.75-8.628-1.402-2.228-1.549-4.578-3.13-6.535-.81-.999-2.344-1.721-3.158-2.729-1.83-2.288-3.951-8.124-7.476-8.297-2.485 4.703-4.822 9.92-6.335 15.395-.006 1.342-.012 2.685-.02 4.036-.313 1.106-1.224 2.341-1.524 3.677-.289 1.288-.636 5.291-.37 6.523.1.447-.332 1.118-.119 2.216.206 1.067.517 3.567-.507 4.098-.707.369-1.647.566-2.437 1.037-.417.254-2.971 3.207-3.523 3.798-2.642.175-4.738-.597-4.802-1.06-.07-.456-.667-1.899.589-2.72.444-.295 1.78-1.959 1.597-2.564-.121-.388.865-1.519 1.095-2.443.372-1.533.111-2.219.525-3.928.167-2.851.335-5.7.5-8.551.639-3.033 1.932-5.673 2.489-8.67-.258-1.548.426-15.026 1.031-18.22.183-.963.675-2.207.708-3.179.252-.799 1.134-2.222 1.318-2.995.203-.817-.467-1.1-.116-2.01.451-1.151 1.538-2.425 2.03-3.707.749-1.938.57-3.585 1.429-5.464.749-1.652 2.026-3.447 2.694-5.094.337-1.36 2.148-5.318 2.385-6.192.528-1.96-.551-4.303-.129-6.49.769-4.047.406-9.188-.751-12.738-.805-2.466.046-6.746.49-8.273 0-.027.006-.048.013-.075 0-.006.024-.068.051-.146a6.03 6.03 0 01.084-.238c-.061-.22-.117-.409-.162-.838-.003-.015.014-.027.01-.042a2.721 2.721 0 00-.019-.242.047.047 0 00-.02-.038 2.892 2.892 0 01-.447-.567 1.143 1.143 0 01-.155-.424.54.54 0 00-.039-.14.205.205 0 00-.104-.122c-.076-.036-.115-.098-.142-.173a1.116 1.116 0 01-.045-.4 6.61 6.61 0 01.018-.319c.006-.134-.015-.265-.032-.4a.76.76 0 01.042-.423.427.427 0 01.349-.257c.061-.005.118-.014.178-.023a.587.587 0 00.267-.123c.039-.03.05-.074.062-.116.027-.095.051-.197.087-.29.023-.074.062-.145.099-.214a.23.23 0 01.232-.125c.099.006.198.018.301.036.114.02.226.038.337-.021a1.75 1.75 0 00.134-.075c.096-.063.191-.131.284-.2.035-.02.053-.056.066-.095.038-.09.07-.18.112-.266a.448.448 0 01.128-.146.379.379 0 01.333-.065c.138.039.269.104.399.16.136.063.276.111.425.12a.42.42 0 00.275-.069.932.932 0 01.379-.167.357.357 0 01.381.161.646.646 0 01.101.32c.013.172.017.351.026.527.006.14.012.28.021.415.009.116.003.233-.012.346-.028.23-.065.453-.098.677-.009.078-.006.152-.006.23a.185.185 0 00.069.158c.111.098.223.19.338.289l.029.024c.102.066.143.158.153.277.01.17.022.334.011.501a.284.284 0 01-.03.105 1.439 1.439 0 01-.227.355.572.572 0 01-.152.116c-.279.161-.561.316-.842.48a.197.197 0 00-.033.015c.004.033-.02.203-.051.349 0 .015.005.03.001.045a7.863 7.863 0 00-.006 1.055c.01.102.014.203.021.305.015.158.027.319.037.48.205 1.882.786 4.086 1.169 5.705.341 1.498-.493 4.185.1 6.049.567 1.795 1.019 3.779 1.574 5.509.076 1.273.148 2.535.219 3.802.161.364.812 1.36.981 1.718.716 1.518.098 2.04 2.244 2.13-.011-.155-1.215-3.58-.622-5.02 1.203-2.914-.605-3.985 2.515-5.19 1.772-1.538 5.791-.426 6.562 1.185.791.846.907 2.07.707 3.063.146 1.034-.35 3.904-.75 4.297-.583.91-1.02 1.694-1.619 2.604-.492.746-1.51 1.21-1.871 2.124-1.522 3.841 2.642 6.138 1.806 9.535-.117.489-.976 2.454-1.326 2.99-.625.562-1.259 1.125-1.895 1.683-.935 1.75-.529 3.537-1.175 5.452-.293.874-1.33 2.565-.763 4.08.248.653 1.063 1.181 1.352 1.715l.405 2.663c.86 1.978 2.712 3.878 3.589 5.843 1.645 3.689 1.993 7.683 3.886 10.979 1.073 1.855 3.33 3.313 4.546 5.108 1.344 1.984 1.484 4.286 2.855 6.112 2.184 2.896 3.044 7.163 6.274 9.042 6.946 4.048 2.712 5.93 2.049 6.019zM145.924 39.124l9.897-1.754-29.732 1.274 12.316-16.8-14.876 14.414-3.609-21.295.242 21.462-16.696-11.205 14.394 13.853-28.649 3.943 9.757.075-6.36 118.276 33.528-2.954.122-21.189 11.6-1.02 3.573 20.864 33.145-2.914-28.652-115.03z" fill="#fff"/>
  <path d="M242.4 66.011l-30.123 2.652-.753-8.667c-.352-4.048-.96-6.592-1.825-7.63-.867-1.038-2.201-1.479-3.999-1.324-1.949.173-3.363 1.05-4.233 2.634-.871 1.58-1.176 3.889-.915 6.922.341 3.904 1.158 6.797 2.459 8.67 1.248 1.885 4.512 4 9.787 6.347 15.136 6.764 24.803 12.559 29.002 17.382 4.196 4.822 6.794 12.964 7.789 24.423.726 8.333.221 14.563-1.513 18.694-1.739 4.137-5.47 7.796-11.193 10.994-5.725 3.197-12.545 5.147-20.454 5.839-8.677.763-16.22-.125-22.628-2.666-6.404-2.544-10.764-6.117-13.081-10.716-2.311-4.599-3.854-11.28-4.617-20.045l-.666-7.656 30.122-2.655 1.239 14.233c.381 4.384 1.05 7.164 2.008 8.342.957 1.178 2.51 1.67 4.668 1.476 2.156-.188 3.693-1.121 4.609-2.804.916-1.685 1.236-4.086.963-7.217-.599-6.887-1.991-11.301-4.18-13.245-2.236-1.936-7.606-5.035-16.099-9.282-8.501-4.297-14.158-7.462-16.972-9.499-2.817-2.031-5.262-4.969-7.327-8.82-2.071-3.84-3.374-8.872-3.917-15.084-.777-8.957-.127-15.61 1.952-19.968 2.077-4.358 5.739-7.94 10.978-10.758 5.243-2.812 11.715-4.56 19.421-5.234 8.423-.746 15.711-.099 21.863 1.93 6.154 2.03 10.364 4.903 12.625 8.607 2.264 3.707 3.799 10.209 4.61 19.502l.4 4.623zM282.237 26.842l10.173 116.946-32.432 2.854-10.176-116.948 32.435-2.852zM375.872 66.148l-32.762 2.884-1.152-13.188c-.512-5.909-1.183-9.565-2.012-10.97-.827-1.405-2.433-2.001-4.822-1.79-2.697.24-4.331 1.277-4.903 3.123-.571 1.846-.6 5.73-.082 11.653l4.13 47.52c.5 5.684 1.182 9.359 2.059 11.032.878 1.667 2.586 2.389 5.132 2.165 2.437-.212 3.957-1.22 4.557-3.024.601-1.808.624-5.917.065-12.339l-1.32-15.192 32.765-2.881.734 8.446c1.052 12.106.879 20.77-.523 25.998-1.4 5.225-5.09 10.021-11.058 14.385-5.974 4.366-13.579 6.955-22.813 7.766-9.601.844-17.652-.072-24.158-2.753-6.507-2.675-11.02-6.782-13.541-12.309-2.519-5.529-4.279-14.02-5.276-25.488l-2.973-34.164c-.735-8.425-.972-14.775-.718-19.043.259-4.268 1.758-8.488 4.51-12.664 2.745-4.166 6.759-7.614 12.041-10.337 5.275-2.72 11.468-4.396 18.575-5.016 9.653-.85 17.767.178 24.349 3.09 6.577 2.91 11.076 6.865 13.498 11.86 2.424 4.996 4.11 12.95 5.059 23.87l.639 7.366zM409.296 15.439l53.7-4.723 2.045 23.501-21.995 1.936 1.939 22.267 19.582-1.724 1.943 22.339-19.581 1.724 4.29 49.324-31.706 2.789-10.217-117.433zM502.387 7.25l10.22 117.432-31.711 2.792-10.217-117.436 31.708-2.788zM578.991.51l2.044 23.5-18.829 1.66 8.17 93.931-31.709 2.788-8.173-93.93-18.753 1.65-2.046-23.5L578.991.51zM385.463 84.443l21.336-1.876-1.649-18.993-21.339 1.876 1.652 18.993zM38.986 112.946l2.847 32.727c4.56-.549 9.104-1.629 10.257-2.941 1.155-1.318 1.527-4.333 1.115-9.052l-.947-10.907c-.436-5.01-1.266-7.992-2.488-8.953-1.222-.957-5.942-1.154-10.784-.874zM35.141 68.74l2.262 26.004c1.383-.167 4.151-.435 4.92-.507 3.184-.274 5.147-1.19 5.893-2.735.746-1.545.817-5.783.214-12.72-.318-3.662-.904-6.192-1.744-7.6-.852-1.404-1.87-2.251-3.057-2.535-1.19-.28-5.147-.152-8.488.093zM.965 51.585l32.357-2.848c10.22-.898 19.719-.979 25.112.047 5.393 1.032 9.906 3.675 13.538 7.937 3.629 4.265 5.889 11.446 6.766 21.551.597 6.836-.134 11.703-2.185 14.602-2.05 2.893-6.378 5.363-12.98 7.394 7.638.933 12.951 3.122 15.942 6.573 2.992 3.451 4.82 8.983 5.483 16.595l.942 10.841c.687 7.903.233 13.842-1.361 17.817-1.593 3.975-4.437 6.848-8.527 8.616-4.09 1.769-12.657 3.227-25.702 4.372l-39.208 3.448L.965 51.585z" fill="#fff"/>
</svg>
