<svg width="472" height="148" viewBox="0 0 472 148" fill="none" xmlns="http://www.w3.org/2000/svg">
<path d="M269.65 47.53H259.23V53.53C259.23 61.53 259.36 69.53 259.12 77.53C258.92 83.87 255.12 87.48 249.12 87.71C243.5 87.92 239.37 84.53 238.34 78.71C238.115 77.0534 238.031 75.3807 238.09 73.71V47.71H227.23C227.23 58.28 226.63 68.48 227.37 78.58C228.37 92.58 236.93 97.94 249.47 97.7C261.08 97.48 268 91.47 269.79 80.9C270.01 79.4138 270.111 77.9123 270.09 76.41V50.91C270.016 49.7751 269.869 48.646 269.65 47.53V47.53ZM454.86 71.59L471.21 47.46H459.12L448.55 63.37L438.08 47.46C433.99 47.46 430.14 46.67 426.01 48.04L442.01 71.76L425.01 96.84H437.11L448.36 80.07L459.42 96.74H471.8L454.86 71.59ZM315.79 69.29C312.54 68.03 309.13 67.23 305.79 66.14C304.187 65.718 302.645 65.0929 301.2 64.28C298.2 62.33 298.39 58.53 301.72 57.22C303.713 56.4361 305.892 56.2484 307.99 56.68C311.49 57.54 314.8 59.12 318.61 60.56L323.82 53.2C317.18 47.59 309.82 46.14 302.01 47.14C299.395 47.5628 296.89 48.5009 294.64 49.9C289.92 52.73 288.14 57.36 288.35 62.67C288.57 68.16 291.26 72.15 296.48 74.16C299.26 75.23 302.14 76.07 304.98 77C306.87 77.62 308.82 78.1 310.66 78.86C313.83 80.17 314.92 81.71 314.55 83.86C314.18 86.01 312.39 87.48 309.42 87.86C305.234 88.3539 301.005 87.4164 297.42 85.2C295.84 84.3 294.32 83.31 292.56 82.2L286.38 89.63C295.15 96.77 304.38 99.25 314.78 96.39C321.5 94.54 325.02 89.57 325.2 82.81C325.38 76.05 322.69 71.94 315.79 69.29V69.29ZM339.25 48.12V57.43H353.88C353.88 64.43 353.82 70.91 353.88 77.37C353.94 83.83 353.54 90.22 354.15 96.78H364.66C364.8 83.7 364.66 70.78 364.77 57.36H379.27V47.75C371.89 46.79 342.6 47.11 339.25 48.12ZM208.29 51.67C208.29 50.39 208.07 49.11 207.94 47.67H197.17V53.46C197.17 62.28 197.28 71.1 197.1 79.91C196.96 86.78 191.7 89.55 185.74 86.04C184.33 85.21 183.07 84.1 181.46 82.91C179.3 85.26 177.21 87.56 174.9 90.08C178.72 94.31 181.63 96.19 185.61 97.03C197.25 99.46 208.72 94.73 208.35 79.12C208.13 70 208.32 60.82 208.29 51.67ZM397.31 47.65V96.77H407.23C408.23 90.59 407.97 51.4 406.98 47.65H397.31ZM63.18 0.779984C48.324 2.86584 34.4656 9.4591 23.4752 19.6699C12.4847 29.8807 4.89139 43.2174 1.72 57.88C1.19 60.28 0.58 62.67 0 65.06V82.06C0.381694 83.1283 0.692364 84.2207 0.929993 85.33C6.99999 125.86 47.3 154 87.49 145.78C126.2 137.85 151.94 101.27 145.81 62.4C139.18 20.4 100.47 -4.76002 63.18 0.779984ZM51 36C57 34.13 63 32.15 69.12 30.45C70.987 29.8589 72.976 29.7658 74.89 30.18C86.73 33.5 98.51 37.05 110.3 40.54C110.862 40.7662 111.407 41.0336 111.93 41.34V46.81H34.51C34.43 45.15 34.36 43.42 34.26 41.18L51 36ZM107 57.31L102 58.31V91.58H91.42V53.11C96.47 52.26 101.5 52.9 106.81 52.74L107 57.31ZM85.46 53V91.43H60.19V53H85.46ZM38.66 57.43V53H53.94V91.53H43.76V58.4L38.66 57.43ZM112.3 104.81C108.75 105.9 40.3 106.13 34.25 105.02V97.89C37.9 96.95 106.06 96.69 112.3 97.61V104.81Z" fill="white"/>
<path d="M75.0001 58.32H70.3701V86H75.0001V58.32Z" fill="white"/>
</svg>
