<svg xmlns="http://www.w3.org/2000/svg" viewBox="0 0 193.04 198.39">
  <defs>
    <style>
      .cls-1{fill:none;stroke:#ccc;stroke-linecap:round;stroke-linejoin:round;stroke-width:1.01px}
    </style>
  </defs>
  <title>
    Asset 1
  </title>
  <g id="Layer_2" data-name="Layer 2">
    <g id="Layer_1-2" data-name="Layer 1">
      <path class="cls-1" d="M57.38 33.96V17.23H44V.5H27.27v16.73H13.89v16.73H.5v163.93h70.26V33.96H57.38z"/>
      <path class="cls-1" d="M35.54 156.07h.19a12.45 12.45 0 0112.45 12.45v29.37H23.09v-29.37a12.45 12.45 0 0112.45-12.45zM20.51 52.36h.13a8.3 8.3 0 018.3 8.3v8.43H12.21v-8.43a8.3 8.3 0 018.3-8.3zM20.51 77.45h.13a8.3 8.3 0 018.3 8.3v8.43H12.21v-8.43a8.3 8.3 0 018.3-8.3zM20.51 102.54h.13a8.3 8.3 0 018.3 8.3v8.43H12.21v-8.43a8.3 8.3 0 018.3-8.3zM20.51 127.63h.13a8.3 8.3 0 018.3 8.3v8.43H12.21v-8.43a8.3 8.3 0 018.3-8.3zM50.62 52.36h.13a8.3 8.3 0 018.3 8.3v8.43H42.32v-8.43a8.3 8.3 0 018.3-8.3zM50.62 77.45h.13a8.3 8.3 0 018.3 8.3v8.43H42.32v-8.43a8.3 8.3 0 018.3-8.3zM50.62 102.54h.13a8.3 8.3 0 018.3 8.3v8.43H42.32v-8.43a8.3 8.3 0 018.3-8.3zM50.62 127.63h.13a8.3 8.3 0 018.3 8.3v8.43H42.32v-8.43a8.3 8.3 0 018.3-8.3zM142.71 52.15h.13a8.3 8.3 0 018.3 8.3v8.43h-16.73v-8.43a8.3 8.3 0 018.3-8.3zM142.71 77.24h.13a8.3 8.3 0 018.3 8.3V94h-16.73v-8.46a8.3 8.3 0 018.3-8.3zM142.71 102.33h.13a8.3 8.3 0 018.3 8.3v8.43h-16.73v-8.43a8.3 8.3 0 018.3-8.3zM142.71 127.43h.13a8.3 8.3 0 018.3 8.3v8.43h-16.73v-8.43a8.3 8.3 0 018.3-8.3zM172.82 52.15h.13a8.3 8.3 0 018.3 8.3v8.43h-16.73v-8.43a8.3 8.3 0 018.3-8.3zM172.82 77.24h.13a8.3 8.3 0 018.3 8.3V94h-16.73v-8.46a8.3 8.3 0 018.3-8.3zM172.82 102.33h.13a8.3 8.3 0 018.3 8.3v8.43h-16.73v-8.43a8.3 8.3 0 018.3-8.3zM172.82 127.43h.13a8.3 8.3 0 018.3 8.3v8.43h-16.73v-8.43a8.3 8.3 0 018.3-8.3zM157.31 155.86h.19a12.45 12.45 0 0112.5 12.45v29.37h-25.14v-29.37a12.45 12.45 0 0112.45-12.45z"/>
      <path class="cls-1" d="M122.28 33.4s21.94 1.53 22.65-21.4a12.54 12.54 0 011.19-5.16C147.53 4 150.62.71 157.37.71h.07c6.76 0 9.85 3.32 11.26 6.16a12.54 12.54 0 011.19 5.13c.71 22.9 22.65 21.37 22.65 21.37v164.31h-70.26V33.4z"/>
      <circle class="cls-1" cx="157.41" cy="33.33" r="10.87"/>
      <path class="cls-1" d="M96.42 155.86h.19a12.45 12.45 0 0112.45 12.45v29.37H84v-29.37a12.45 12.45 0 0112.42-12.45z"/>
      <path class="cls-1" d="M122.03 17.44L96.52.71 71.01 17.44V197.68h51.02V17.44z"/>
      <path class="cls-1" d="M89.41 33.33h14.22v26.76H89.41zM89.41 75.99h14.22v26.76H89.41zM89.41 118.64h14.22v26.76H89.41z"/>
    </g>
  </g>
</svg>
