<svg width="51" height="79" viewBox="0 0 51 79" fill="none" xmlns="http://www.w3.org/2000/svg">
<path d="M16.1041 53.0001H0.744141V54.2481C0.744141 69.6081 9.00014 78.2481 25.8001 78.2481C43.7521 78.2481 50.8561 66.4401 50.8561 56.9361V55.1121C50.8561 46.8561 46.8241 41.6721 41.6401 38.6961C46.5361 35.8161 50.3761 30.6321 50.3761 22.6641V20.8401C50.3761 11.8161 44.0401 0.87207 25.8001 0.87207C9.09614 0.87207 1.22414 9.03207 1.22414 25.1601V27.0801H16.5841C16.5841 17.5761 19.9441 14.3121 25.3201 14.3121H26.2801C31.3681 14.3121 35.0161 17.6721 35.0161 22.6641V23.5281C35.0161 29.2881 31.7521 32.0721 26.1841 32.0721H16.2001V45.5121H26.4721C32.0401 45.5121 35.4961 48.3921 35.4961 54.2481V55.3041C35.4961 61.9281 31.0801 64.8081 26.2801 64.8081H25.3201C20.1361 64.8081 16.1041 61.9281 16.1041 53.0001Z" fill="#FFF010"/>
</svg>
