<svg width="51" height="77" viewBox="0 0 51 77" fill="none" xmlns="http://www.w3.org/2000/svg">
<path d="M0.744141 51.0001V52.2481C0.744141 67.6081 9.00014 76.2481 25.8001 76.2481C42.2161 76.2481 50.8561 66.9361 50.8561 52.2481V50.4241C50.8561 35.7361 42.2161 26.4241 26.5681 26.4241C22.4401 26.4241 18.6001 27.2881 15.2401 28.7281L15.9121 13.5601H49.8961V0.120117H3.04814L1.32014 41.2081L14.4721 45.7201C16.4881 41.6881 21.0001 39.7681 24.9361 39.7681H25.5121C31.0801 39.7681 35.4961 42.8401 35.4961 50.8081V51.8641C35.4961 59.8321 31.0801 62.8081 26.2801 62.8081H25.3201C20.1361 62.8081 16.1041 59.9281 16.1041 51.0001H0.744141Z" fill="white"/>
</svg>
