<svg xmlns="http://www.w3.org/2000/svg" viewBox="0 0 165.28 237.47">
  <defs>
    <style>
      .cls-1,.cls-2{fill:none;stroke:#ccc;stroke-linecap:round;stroke-linejoin:round}.cls-1{stroke-width:1px}.cls-2{stroke-width:.81px}
    </style>
  </defs>
  <title>
    Asset 3
  </title>
  <g id="Layer_2" data-name="Layer 2">
    <g id="Layer_1-2" data-name="Layer 1">
      <path class="cls-1" d="M50.26 211.75l5.64-18.35 5.64 18.35v25.22H50.26v-25.22zM38.98 211.75l5.64-18.35 5.64 18.35v25.22H38.98v-25.22zM27.7 199.92h11.28v37.04H27.7zM61.54 199.92h11.28v37.04H61.54z"/>
      <path class="cls-1" d="M16.42 199.78l5.64-6.38 5.64 6.38v37.19H16.42v-37.19z"/>
      <path class="cls-1" d="M27.7 139.81l5.64-16.31 5.64 16.31v60.11H27.7v-60.11zM58.9 135.79V111.9l6.73-48.59 6.73 48.59v31.52"/>
      <path class="cls-2" d="M72.36 114.13l10.24-33.4"/>
      <path class="cls-1" d="M33.25 124.36V111.9l6.73-48.59 6.72 48.59v23.89M44.17 93.58l8.16-9.38 9.1 9.94"/>
      <path class="cls-1" d="M72.36 114.13H58.77l-6.44-7.28-5.44 6.65H34M38.98 158.76l5.64-16.31 5.64 16.31v28.45H38.98v-28.45zM16.42 162.7l5.64-14.05 5.64 14.05v24.51H16.42V162.7zM2.49 169.71l6.97-10.04 6.96 10.04v17.5H2.49v-17.5zM50.26 158.76l5.64-16.31 5.64 16.31v28.45H50.26v-28.45zM.5 211.75l15.92-18.35v43.57H.5v-25.22zM61.54 211.42v-24.21H38.98v24.21M27.7 200.97v-13.76H16.42v13.76"/>
      <path class="cls-1" d="M16.42 204.37v-17.16H2.49v22.55M11.1 162.04v-19.59h16.6v20.25M12.44 142.26v-17.9h20.85M60.98 157.15l14.49-17.02 7.22-16.63"/>
      <path class="cls-1" d="M37.59 135.79h23.84v64.13M42.25 79.71L52.8 22.5l10.4 57.21M71.83 130.15H58.9M70.46 167.93v31.99M82.1 220.71c-3.32 0-2.82 4.82-2.82 4.82V237h-6.46v-25.25l9.86-18.35 9.79 18.35V237H86v-11.47s.5-4.82-2.82-4.82zM115.02 211.75l-5.64-18.35-5.63 18.35v25.22h11.27v-25.22zM126.3 211.75l-5.64-18.35-5.64 18.35v25.22h11.28v-25.22zM126.3 199.92h11.28v37.04H126.3zM92.47 199.92h11.28v37.04H92.47zM148.86 199.78l-5.64-6.38-5.64 6.38v37.19h11.28v-37.19z"/>
      <path class="cls-1" d="M137.58 139.81l-5.64-16.31-5.64 16.31v60.11h11.28v-60.11zM106.38 135.79V111.9l-6.73-48.59-6.73 48.59v31.52"/>
      <path class="cls-2" d="M92.92 114.13l-10.24-33.4"/>
      <path class="cls-1" d="M132.03 124.36V111.9l-6.72-48.59-6.73 48.59v23.89M121.11 93.58l-8.16-9.38-9.1 9.94"/>
      <path class="cls-1" d="M92.92 114.13h13.59l6.44-7.28 5.44 6.65h12.89M126.3 158.76l-5.64-16.31-5.64 16.31v28.45h11.28v-28.45zM148.86 162.7l-5.64-14.05-5.64 14.05v24.51h11.28V162.7z"/>
      <path class="cls-1" d="M162.79 169.71l-6.96-10.04-6.97 10.04v17.5h13.93v-17.5zM115.02 158.76l-5.64-16.31-5.63 16.31v28.45h11.27v-28.45zM164.78 211.75l-15.92-18.35v43.57h15.92v-25.22zM103.75 211.42v-24.21h22.55v24.21M137.58 200.97v-13.76h11.28v13.76"/>
      <path class="cls-1" d="M148.86 204.37v-17.16h13.93v22.55M154.18 162.04v-19.59h-16.6v20.25M152.84 142.26v-17.9h-20.85M103.92 177.43L89.81 162.7 83.93 147a1.38 1.38 0 00-1.29-.9 1.38 1.38 0 00-1.29.9l-5.88 15.7-14.11 14.73M104.3 157.15l-14.49-17.02-7.21-16.63"/>
      <path class="cls-1" d="M127.69 135.79h-23.84v64.13M123.03 79.71L112.48 22.5l-10.39 57.21M93.45 130.15h12.93M94.82 167.93v31.99M103.75 187.21H61.54M92.47 218.44l-8.64-9.16a1.63 1.63 0 00-1.19-.51 1.59 1.59 0 00-1.18.51l-8.64 9.16M94.82 174.6l-12.22-8.62-12.14 8.62M82.6 165.98v21.23M73.61 110.49h18.27M52.33 84.2v-7.46M12.44 124.36v-7.46M2.49 169.71v-7.46M.5 212.5v-7.46M152.84 124.36v-7.46M162.79 169.71v-7.46M164.78 212.5v-7.46M113.07 84.2v-7.46M52.8 22.12V.5M58.11 6.47H47.48M112.56 22.12V.5M117.88 6.47h-10.64M82.6 80.73V59.11M87.91 65.08H77.28"/>
    </g>
  </g>
</svg>
