<svg xmlns="http://www.w3.org/2000/svg" viewBox="0 0 238.66 237.47">
  <defs>
    <style>
      .cls-1{fill:none;stroke:#ccc;stroke-linecap:round;stroke-linejoin:round}
    </style>
  </defs>
  <title>
    Asset 2
  </title>
  <g id="Layer_2" data-name="Layer 2">
    <g id="Layer_1-2" data-name="Layer 1">
      <path class="cls-1" d="M.5 118.73h53.01v118.23H.5z"/>
      <path class="cls-1" d="M11.14 132.16h6.21v14.42h-6.21zM11.14 157.81h6.21v14.42h-6.21zM11.14 183.47h6.21v14.42h-6.21zM11.14 209.12h6.21v14.42h-6.21zM23.9 132.16h6.21v14.42H23.9zM23.9 157.81h6.21v14.42H23.9zM23.9 183.47h6.21v14.42H23.9zM23.9 209.12h6.21v14.42H23.9zM36.66 132.16h6.21v14.42h-6.21zM36.66 157.81h6.21v14.42h-6.21zM36.66 183.47h6.21v14.42h-6.21zM36.66 209.12h6.21v14.42h-6.21zM66.12 118.73h53.01v118.23H66.12z"/>
      <path class="cls-1" d="M76.76 132.16h6.21v14.42h-6.21zM76.76 157.81h6.21v14.42h-6.21zM76.76 183.47h6.21v14.42h-6.21zM76.76 209.12h6.21v14.42h-6.21zM89.52 132.16h6.21v14.42h-6.21zM89.52 157.81h6.21v14.42h-6.21zM89.52 183.47h6.21v14.42h-6.21zM89.52 209.12h6.21v14.42h-6.21zM102.28 132.16h6.21v14.42h-6.21zM102.28 157.81h6.21v14.42h-6.21zM102.28 183.47h6.21v14.42h-6.21zM102.28 209.12h6.21v14.42h-6.21zM119.13 118.73h53.01v118.23h-53.01z"/>
      <path class="cls-1" d="M129.77 132.16h6.21v14.42h-6.21zM129.77 157.81h6.21v14.42h-6.21zM129.77 183.47h6.21v14.42h-6.21zM129.77 209.12h6.21v14.42h-6.21zM142.53 132.16h6.21v14.42h-6.21zM142.53 157.81h6.21v14.42h-6.21zM142.53 183.47h6.21v14.42h-6.21zM142.53 209.12h6.21v14.42h-6.21zM155.28 132.16h6.21v14.42h-6.21zM155.28 157.81h6.21v14.42h-6.21zM155.28 183.47h6.21v14.42h-6.21zM155.28 209.12h6.21v14.42h-6.21zM172.13 118.73h53.01v118.23h-53.01z"/>
      <path class="cls-1" d="M182.77 132.16h6.21v14.42h-6.21zM182.77 157.81h6.21v14.42h-6.21zM182.77 183.47h6.21v14.42h-6.21zM182.77 209.12h6.21v14.42h-6.21zM195.53 132.16h6.21v14.42h-6.21zM195.53 157.81h6.21v14.42h-6.21zM195.53 183.47h6.21v14.42h-6.21zM195.53 209.12h6.21v14.42h-6.21zM208.29 132.16h6.21v14.42h-6.21zM208.29 157.81h6.21v14.42h-6.21zM208.29 183.47h6.21v14.42h-6.21zM208.29 209.12h6.21v14.42h-6.21zM185.15.5h53.01v118.23h-53.01z"/>
      <path class="cls-1" d="M195.79 13.93H202v14.42h-6.21zM195.79 39.58H202V54h-6.21zM195.79 65.23H202v14.42h-6.21zM195.79 90.89H202v14.42h-6.21zM208.55 13.93h6.21v14.42h-6.21zM208.55 39.58h6.21V54h-6.21zM208.55 65.23h6.21v14.42h-6.21zM208.55 90.89h6.21v14.42h-6.21zM221.31 13.93h6.21v14.42h-6.21zM221.31 39.58h6.21V54h-6.21zM221.31 65.23h6.21v14.42h-6.21zM221.31 90.89h6.21v14.42h-6.21zM132.77.5h39.68v118.23h-39.68z"/>
      <path class="cls-1" d="M143.13 13.93h6.21v14.42h-6.21zM143.13 39.58h6.21V54h-6.21zM143.13 65.23h6.21v14.42h-6.21zM143.13 90.89h6.21v14.42h-6.21zM155.88 13.93h6.21v14.42h-6.21zM155.88 39.58h6.21V54h-6.21zM155.88 65.23h6.21v14.42h-6.21zM155.88 90.89h6.21v14.42h-6.21zM93.11.5h39.68v118.23H93.11z"/>
      <path class="cls-1" d="M103.47 13.93h6.21v14.42h-6.21zM103.47 39.58h6.21V54h-6.21zM103.47 65.23h6.21v14.42h-6.21zM103.47 90.89h6.21v14.42h-6.21zM116.22 13.93h6.21v14.42h-6.21zM116.22 39.58h6.21V54h-6.21zM116.22 65.23h6.21v14.42h-6.21zM116.22 90.89h6.21v14.42h-6.21zM.5.5h79.37v118.23H.5z"/>
      <path class="cls-1" d="M11.14 13.93h6.21v14.42h-6.21zM11.14 39.58h6.21V54h-6.21zM11.14 65.23h6.21v14.42h-6.21zM11.14 90.89h6.21v14.42h-6.21zM23.9 13.93h6.21v14.42H23.9zM23.9 39.58h6.21V54H23.9zM23.9 65.23h6.21v14.42H23.9zM23.9 90.89h6.21v14.42H23.9zM36.66 13.93h6.21v14.42h-6.21zM36.66 39.58h6.21V54h-6.21zM36.66 65.23h6.21v14.42h-6.21zM36.66 90.89h6.21v14.42h-6.21zM49.41 13.93h6.21v14.42h-6.21zM49.41 39.58h6.21V54h-6.21zM49.41 65.23h6.21v14.42h-6.21zM49.41 90.89h6.21v14.42h-6.21zM62.17 13.93h6.21v14.42h-6.21zM62.17 39.58h6.21V54h-6.21zM62.17 65.23h6.21v14.42h-6.21zM62.17 90.89h6.21v14.42h-6.21z"/>
    </g>
  </g>
</svg>
