<svg xmlns="http://www.w3.org/2000/svg" xmlns:xlink="http://www.w3.org/1999/xlink">
  
  <!-- Logo: All This outline-->
  <symbol id="logo-allthis" viewBox="0 0 140 41">
    <path d="M1.038.75h138.047v39H1.038v-39z" stroke="#DAE1D9"/>
    <path fill-rule="evenodd" clip-rule="evenodd" d="M21.862 27.414l.105.882.243 2.045h5.064l-4.029-20.236H16.82L8.078 30.34h4.95l.822-2.268.239-.66h7.773zm-8.133 3.927H6.556l.433-1 9.173-21.236h7.904l4.228 21.236.2 1H21.32l-.347-2.927H14.79l-1.061 2.927zm7.845-6.473h-6.662l.472-1.333 3.055-8.636 1.936.211 1.06 8.637.139 1.121zm-2.192-9.636l-.748 2.114-1.954 5.522-.353 1h4.116l-.123-1-.665-5.41-.273-2.226zm18.487 9.618l1.74-14.745.118-1H32.7L30.203 30.34l-.118 1h13.027l.523-4.49.117-1H37.751l.118-1zm4.76 2h-6.003l.132-1.117 1.844-15.628h-5.011L31.21 30.34H42.22l.408-3.49zm10.717-2l1.724-14.745.117-1H48.16L45.68 30.34l-.117 1H58.59l.523-4.49.117-1H53.23l.117-1zm4.76 2H52.106l.13-1.116 1.828-15.63h-5.012l-2.364 20.237H57.7l.407-3.49zm15.53-13.254l-.13 1.115-1.81 15.63h5.012l1.837-15.86.102-.885h4.541l.42-3.491H69.52l-.418 3.49h4.532zm-5.54 0l-.12 1h4.537l-.116 1-1.708 14.745-.115 1h7.025l1.94-16.745h4.537l.538-4.491.12-1h-16.1l-.539 4.49zm24.333 3.054l.785-6.545.12-1h-7.026L83.827 30.34l-.117 1h7.026l1.006-8.382h4.665l-.118 1-.752 6.382-.118 1h7.026l2.463-21.236.116-1h-7.026l-1.024 8.545H92.31l.12-1zm6.457-6.545l-.919 7.664-.105.881h-6.68l.134-1.119.89-7.426h-5.008L84.834 30.34h5.014l.9-7.5.107-.882h6.677l-.132 1.117-.856 7.265h5.01l2.348-20.236h-5.016zm10.029 0L106.55 30.34h5.012l2.365-20.236h-5.012zm5.129-1h-6.019l-2.481 21.236-.117 1H112.452l2.482-21.236.116-1h-1.006zm11.984 16.327c-.128 1.091-.951 1.782-2.104 1.782-1.183 0-1.924-.665-2.048-1.927-.03-.3-.025-.634.017-1h-6.843c-.548 5.018 2.507 7.745 8.179 7.745 5.305 0 9.019-2.636 9.55-7.054.348-2.982-.805-5.019-3.86-6.419l-3.751-1.654c-1.537-.728-2.287-1.273-2.141-2.382.11-1.018.86-1.655 1.976-1.655 1.025 0 1.64.551 1.757 1.672.027.26.027.552 0 .874h6.641c.512-4.546-2.214-7.018-7.666-7.018-5.342 0-8.928 2.563-9.386 6.636-.384 3.218 1.171 5.273 4.611 6.71l3.129 1.308c1.445.637 2.049 1.273 1.939 2.382zm6.434-11.018c.011-1.575-.483-2.7-1.332-3.475-1.039-.95-2.792-1.543-5.395-1.543-2.519 0-4.534.605-5.946 1.606-1.394.989-2.25 2.394-2.446 4.142l-.001.007c-.168 1.412.094 2.471.697 3.328.621.883 1.681 1.66 3.306 2.34h.001l3.129 1.309.008.003.009.004c.761.335 1.446.728 1.914 1.284.515.611.695 1.326.617 2.112l-.001.009-.001.009c-.091.776-.44 1.46-1.016 1.947-.571.483-1.303.718-2.081.718-.977 0-1.88-.353-2.461-1.167-.357-.5-.54-1.103-.591-1.76h-4.884c-.026 1.812.536 3.123 1.501 4.023 1.149 1.07 3.041 1.722 5.74 1.722 2.494 0 4.528-.62 5.976-1.678 1.431-1.045 2.348-2.558 2.581-4.494.155-1.335-.035-2.354-.521-3.175-.491-.827-1.352-1.569-2.757-2.214l-3.744-1.651-.012-.006-.012-.005c-.761-.36-1.485-.743-1.985-1.25-.574-.58-.831-1.297-.721-2.155.082-.733.405-1.389.961-1.856.553-.464 1.26-.68 2.008-.68.866 0 1.689.3 2.223 1.054.304.43.465.94.526 1.492h4.71z" fill="#ff00ff"/>
    <path stroke="#DAE1D9" d="M1.038.75h138.048v39H1.038z"/>
  </symbol>

  <!--Image: Blob one -->
  <symbol id="img-blob-one" viewBox="0 0 310 350">
    <path
      d="M156.4,339.5c31.8-2.5,59.4-26.8,80.2-48.5c28.3-29.5,40.5-47,56.1-85.1c14-34.3,20.7-75.6,2.3-111  c-18.1-34.8-55.7-58-90.4-72.3c-11.7-4.8-24.1-8.8-36.8-11.5l-0.9-0.9l-0.6,0.6c-27.7-5.8-56.6-6-82.4,3c-38.8,13.6-64,48.8-66.8,90.3c-3,43.9,17.8,88.3,33.7,128.8c5.3,13.5,10.4,27.1,14.9,40.9C77.5,309.9,111,343,156.4,339.5z" fill="#010fff" />
  </symbol>
  <!--Image: Blob two -->
  <symbol id="img-blob-two" viewBox="0 0 310 350">
    <path
    d="M156.4,339.5c31.8-2.5,59.4-26.8,80.2-48.5c28.3-29.5,40.5-47,56.1-85.1c14-34.3,20.7-75.6,2.3-111  c-18.1-34.8-55.7-58-90.4-72.3c-11.7-4.8-24.1-8.8-36.8-11.5l-0.9-0.9l-0.6,0.6c-27.7-5.8-56.6-6-82.4,3c-38.8,13.6-64,48.8-66.8,90.3c-3,43.9,17.8,88.3,33.7,128.8c5.3,13.5,10.4,27.1,14.9,40.9C77.5,309.9,111,343,156.4,339.5z" fill="#fff010" />
  </symbol>
  
</svg>
